<svg xmlns:xlink="http://www.w3.org/1999/xlink" xmlns="http://www.w3.org/2000/svg" version="1.1" viewBox="0 0 1024 1024" height="1024px" width="1024px">
    <title>使用手册</title>
    <defs>
        <linearGradient id="linearGradient-1" y2="46.1800542%" x2="9.83256144%" y1="52.8344671%" x1="95.3729709%">
            <stop offset="0%" stop-color="#FF5000"></stop>
            <stop offset="100%" stop-color="#FFA452"></stop>
        </linearGradient>
        <path id="path-2" d="M162.133333,682.666667 L477.866667,682.666667 C501.430816,682.666667 520.533333,701.769184 520.533333,725.333333 L520.533333,768 L520.533333,768 L162.133333,768 L162.133333,682.666667 Z"></path>
        <linearGradient id="linearGradient-3" y2="48.8137336%" x2="14.012254%" y1="51.990063%" x1="95.9240132%">
            <stop offset="0%" stop-color="#FF5000"></stop>
            <stop offset="100%" stop-color="#FFA452"></stop>
        </linearGradient>
        <linearGradient id="linearGradient-4" y2="50%" x2="100%" y1="50%" x1="0%">
            <stop offset="0%" stop-color="#FF5000"></stop>
            <stop offset="100%" stop-color="#FFA452"></stop>
        </linearGradient>
        <linearGradient id="linearGradient-5" y2="50%" x2="100%" y1="50%" x1="0%">
            <stop offset="0%" stop-color="#FF5000"></stop>
            <stop offset="100%" stop-color="#FFA452"></stop>
        </linearGradient>
        <path id="path-6" d="M718.367594,356.694763 C730.667826,356.694763 739.963885,347.332635 739.963885,336.216648 C739.963885,324.508958 730.667594,315.733333 718.66829,315.733333 C707.26458,315.733333 697.364116,324.508958 697.364116,336.216648 C697.364116,347.332861 707.26458,356.694763 718.367594,356.694763 L718.367594,356.694763 Z M739.963885,474.599648 L739.963885,371.079027 C723.169912,375.754777 703.369449,379.561399 685.36713,381.608736 L685.36713,394.143048 C699.769449,396.483637 701.868753,397.357966 701.868753,416.671213 L701.868753,474.599874 C701.868753,495.368527 700.06458,496.544248 682.666667,498.586158 L682.666667,512 L759.466667,512 L759.466667,498.586158 C741.470144,496.25077 739.963885,494.787223 739.963885,474.599648 Z"></path>
    </defs>
    <g fill-rule="evenodd" fill="none" stroke-width="1" stroke="none" id="页面-1">
        <g id="使用手册">
            <polygon points="0 1024 1024 1024 1024 0 0 0" fill="#FFFFFF" id="Fill-1备份"></polygon>
            <rect rx="40" height="588.8" width="853.333333" y="247.466667" x="93.8666667" fill="#222222" id="矩形"></rect>
            <path fill="#EBEBEB" id="矩形" d="M162.133333,179.2 L470.533333,179.2 C498.147571,179.2 520.533333,201.585763 520.533333,229.2 L520.533333,768 L520.533333,768 L162.133333,768 L162.133333,179.2 Z"></path>
            <path transform="translate(699.733333, 473.600000) scale(-1, 1) translate(-699.733333, -473.600000)" fill="#FDCCA2" id="矩形备份-11" d="M520.533333,179.2 L828.933333,179.2 C856.547571,179.2 878.933333,201.585763 878.933333,229.2 L878.933333,768 L878.933333,768 L520.533333,768 L520.533333,179.2 Z"></path>
            <path transform="translate(554.666667, 473.600000) scale(-1, 1) translate(-554.666667, -473.600000)" fill="#FFA451" id="矩形备份-12" d="M520.533333,179.2 L538.8,179.2 C566.414237,179.2 588.8,201.585763 588.8,229.2 L588.8,768 L588.8,768 L520.533333,768 L520.533333,179.2 Z"></path>
            <g id="矩形">
                <use xlink:href="#path-2" fill="url(#linearGradient-1)"></use>
                <use xlink:href="#path-2" fill="#C4C5C8"></use>
            </g>
            <path transform="translate(699.733333, 725.333333) scale(-1, 1) translate(-699.733333, -725.333333)" fill="url(#linearGradient-3)" id="矩形备份-12" d="M520.533333,682.666667 L836.266665,682.666667 C859.830815,682.666667 878.933333,701.769185 878.933333,725.333335 L878.933333,768 L878.933333,768 L520.533333,768 L520.533333,682.666667 Z"></path>
            <path fill="url(#linearGradient-4)" id="形状结合备份-2" d="M221.866667,324.266667 L409.6,324.266667 L409.6,358.4 L221.866667,358.4 L221.866667,324.266667 Z M221.866667,401.066667 L375.466667,401.066667 L375.466667,435.2 L221.866667,435.2 L221.866667,401.066667 Z M221.866667,477.866667 L341.333333,477.866667 L341.333333,512 L221.866667,512 L221.866667,477.866667 Z"></path>
            <g fill-rule="nonzero" id="形状">
                <use xlink:href="#path-6" fill="url(#linearGradient-5)"></use>
                <use xlink:href="#path-6" fill="#FFFFFF"></use>
            </g>
        </g>
    </g>
</svg>